<!--?xml version="1.0" encoding="iso-8859-1"?-->
<!-- Generator: Adobe Illustrator 19.0.0, SVG Export Plug-In . SVG Version: 6.00 Build 0)  -->
<svg version="1.1" id="Capa_1" xmlns="http://www.w3.org/2000/svg" xmlns:xlink="http://www.w3.org/1999/xlink" x="0px" y="0px" viewBox="0 0 512 512" style="" xml:space="preserve">
<path style="fill:#69CDFF;" d="M22,256A245,245 0,1,1 512,256A245,245 0,1,1 22,256" class="AbDeSZel_0"></path>
<path style="fill:#445EA0;" width="78.71" height="41.23" d="M185.72 358.53 L264.43 358.53 L264.43 399.76 L185.72 399.76 Z" class="AbDeSZel_1"></path>
<path style="fill:#2E4C89;" width="19.842" height="41.23" d="M185.72 358.53 L205.562 358.53 L205.562 399.76 L185.72 399.76 Z" class="AbDeSZel_2"></path>
<path style="fill:#293D7C;" d="M316.856,398.763H127.56c-2.806,0-5.101,2.296-5.101,5.102v25.571c0,2.806,2.296,5.102,5.101,5.102
	h189.296L316.856,398.763L316.856,398.763z" class="AbDeSZel_3"></path>
<path style="fill:#1A2B63;" d="M142.301,429.435v-25.571c0-2.806,2.296-5.102,5.102-5.102H127.56c-2.806,0-5.101,2.296-5.101,5.102
	v25.571c0,2.806,2.296,5.102,5.101,5.102h19.842C144.597,434.537,142.301,432.241,142.301,429.435z" class="AbDeSZel_4"></path>
<path style="fill:#293D7C;" d="M445.054,58.964H5.102C2.296,58.964,0,61.26,0,64.066V354.43c0,2.807,2.296,5.102,5.102,5.102
	h311.754V206.768c0-3.859,3.14-7,7-7h126.3V64.066C450.156,61.26,447.86,58.964,445.054,58.964z" class="AbDeSZel_5"></path>
<path style="fill:#FFFFFF;" d="M22.396,308.514c0,1.684,1.377,3.06,3.061,3.06h291.399V206.768c0-3.859,3.14-7,7-7H427.76v-90.77
	H22.396V308.514z" class="AbDeSZel_6"></path>
<path style="fill:#D9EAFC;" d="M42.239,308.514V108.998H22.396v199.516c0,1.684,1.377,3.06,3.061,3.06H45.3
	C43.616,311.574,42.239,310.197,42.239,308.514z" class="AbDeSZel_7"></path>
<path style="fill:#445EA0;" d="M211.306,335.46A13.774,13.774 0,1,1 238.854,335.46A13.774,13.774 0,1,1 211.306,335.46" class="AbDeSZel_8"></path>
<path style="fill:#C3DDF4;" d="M316.856,223.146h-53.424c-1.65,0-3,1.35-3,3v59.639c0,1.65,1.35,3,3,3h53.424V223.146z" class="AbDeSZel_9"></path>
<path style="fill:#AEC1ED;" d="M280.274,285.785v-59.639c0-1.65,1.35-3,3-3h-19.842c-1.65,0-3,1.35-3,3v59.639c0,1.65,1.35,3,3,3
	h19.842C281.624,288.785,280.274,287.435,280.274,285.785z" class="AbDeSZel_10"></path>
<path style="fill:#C3DDF4;" d="M323.856,199.768h46.618v-65.382c0-2.75-2.25-5-5-5H84.682c-2.75,0-5,2.25-5,5v66.525
	c0,2.75,2.25,5,5,5h232.233C317.339,202.455,320.288,199.768,323.856,199.768z" class="AbDeSZel_11"></path>
<path style="fill:#AEC1ED;" d="M99.524,200.91v-66.525c0-2.75,2.25-5,5-5H84.682c-2.75,0-5,2.25-5,5v66.525c0,2.75,2.25,5,5,5
	h19.842C101.774,205.91,99.524,203.66,99.524,200.91z" class="AbDeSZel_12"></path>
<path style="fill:#FFAF10;" d="M424.699,84.983H25.457c-1.684,0-3.061,1.377-3.061,3.062v21.953H427.76V88.045
	C427.76,86.36,426.382,84.983,424.699,84.983z" class="AbDeSZel_13"></path>
<path style="fill:#FF9518;" d="M45.3,84.983H25.457c-1.684,0-3.061,1.377-3.061,3.062v21.953h19.842V88.045
	C42.239,86.36,43.616,84.983,45.3,84.983z" class="AbDeSZel_14"></path>
<g>
	<path style="fill:#5DC1D8;" d="M171.504,238.979h-84.17c-4.142,0-7.5-3.357-7.5-7.5s3.358-7.5,7.5-7.5h84.17
		c4.142,0,7.5,3.357,7.5,7.5S175.646,238.979,171.504,238.979z" class="AbDeSZel_15"></path>
	<path style="fill:#5DC1D8;" d="M171.504,263.466h-84.17c-4.142,0-7.5-3.357-7.5-7.5s3.358-7.5,7.5-7.5h84.17
		c4.142,0,7.5,3.357,7.5,7.5C179.004,260.108,175.646,263.466,171.504,263.466z" class="AbDeSZel_16"></path>
	<path style="fill:#5DC1D8;" d="M171.504,287.953h-84.17c-4.142,0-7.5-3.357-7.5-7.5s3.358-7.5,7.5-7.5h84.17
		c4.142,0,7.5,3.357,7.5,7.5S175.646,287.953,171.504,287.953z" class="AbDeSZel_17"></path>
	<path style="fill:#5DC1D8;" d="M237.56,238.979h-43.326c-4.142,0-7.5-3.357-7.5-7.5s3.358-7.5,7.5-7.5h43.326
		c4.142,0,7.5,3.357,7.5,7.5S241.702,238.979,237.56,238.979z" class="AbDeSZel_18"></path>
	<path style="fill:#5DC1D8;" d="M237.56,263.466h-43.326c-4.142,0-7.5-3.357-7.5-7.5s3.358-7.5,7.5-7.5h43.326
		c4.142,0,7.5,3.357,7.5,7.5C245.06,260.108,241.702,263.466,237.56,263.466z" class="AbDeSZel_19"></path>
	<path style="fill:#5DC1D8;" d="M237.56,287.953h-43.326c-4.142,0-7.5-3.357-7.5-7.5s3.358-7.5,7.5-7.5h43.326
		c4.142,0,7.5,3.357,7.5,7.5S241.702,287.953,237.56,287.953z" class="AbDeSZel_20"></path>
</g>
<path style="fill:#445EA0;" d="M504,198.768c4.4,0,8,3.6,8,8v241.77c0,4.4-3.6,8-8,8H323.856c-4.4,0-8-3.6-8-8v-241.77
	c0-4.4,3.6-8,8-8L504,198.768L504,198.768z" class="AbDeSZel_21"></path>
<path style="fill:#FFFFFF;" d="M337.567,425.125c-2.75,0-5-2.25-5-5V219.18c0-2.75,2.25-5,5-5H490.29c2.75,0,5,2.25,5,5v200.945
	c0,2.75-2.25,5-5,5H337.567z" class="AbDeSZel_22"></path>
<path style="fill:#D9EAFC;" d="M352.409,420.125V219.18c0-2.75,2.25-5,5-5h-19.842c-2.75,0-5,2.25-5,5v200.945c0,2.75,2.25,5,5,5
	h19.842C354.659,425.125,352.409,422.875,352.409,420.125z" class="AbDeSZel_23"></path>
<path style="fill:#445EA0;" d="M404.567,445.125c-2.75,0-5-2.25-5-5v-1.945c0-2.75,2.25-5,5-5h18.723c2.75,0,5,2.25,5,5v1.945
	c0,2.75-2.25,5-5,5H404.567z" class="AbDeSZel_24"></path>
<path style="fill:#FFAF10;" d="M495.29,233.473V219.18c0-2.75-2.25-5-5-5H337.567c-2.75,0-5,2.25-5,5v14.293L495.29,233.473
	L495.29,233.473z" class="AbDeSZel_25"></path>
<path style="fill:#FF9518;" d="M357.409,214.18h-19.842c-2.75,0-5,2.25-5,5v14.293h19.842V219.18
	C352.409,216.43,354.659,214.18,357.409,214.18z" class="AbDeSZel_26"></path>
<g>
	<path style="fill:#5DC1D8;" d="M448.013,324.933h-68.169c-4.142,0-7.5-3.357-7.5-7.5s3.358-7.5,7.5-7.5h68.169
		c4.142,0,7.5,3.357,7.5,7.5C455.513,321.575,452.155,324.933,448.013,324.933z" class="AbDeSZel_27"></path>
	<path style="fill:#5DC1D8;" d="M448.013,348.06h-68.169c-4.142,0-7.5-3.357-7.5-7.5c0-4.142,3.358-7.5,7.5-7.5h68.169
		c4.142,0,7.5,3.358,7.5,7.5C455.513,344.703,452.155,348.06,448.013,348.06z" class="AbDeSZel_28"></path>
	<path style="fill:#5DC1D8;" d="M448.013,371.185h-68.169c-4.142,0-7.5-3.357-7.5-7.5c0-4.142,3.358-7.5,7.5-7.5h68.169
		c4.142,0,7.5,3.358,7.5,7.5C455.513,367.828,452.155,371.185,448.013,371.185z" class="AbDeSZel_29"></path>
</g>
<path style="fill:#C3DDF4;" d="M479.756,292.257c0,2.75-2.25,5-5,5H353.101c-2.75,0-5-2.25-5-5v-41.244c0-2.75,2.25-5,5-5h121.655
	c2.75,0,5,2.25,5,5V292.257z" class="AbDeSZel_30"></path>
<path style="fill:#AEC1ED;" d="M367.943,292.257v-41.244c0-2.75,2.25-5,5-5h-19.842c-2.75,0-5,2.25-5,5v41.244c0,2.75,2.25,5,5,5
	h19.842C370.193,297.257,367.943,295.007,367.943,292.257z" class="AbDeSZel_31"></path>
<path style="fill:#C3DDF4;" d="M461.757,409.416c0,2.75-2.25,5-5,5H371.1c-2.75,0-5-2.25-5-5v-16.91c0-2.75,2.25-5,5-5h85.657
	c2.75,0,5,2.25,5,5L461.757,409.416L461.757,409.416z" class="AbDeSZel_32"></path>
<path style="fill:#AEC1ED;" d="M385.942,409.416v-16.91c0-2.75,2.25-5,5-5H371.1c-2.75,0-5,2.25-5,5v16.91c0,2.75,2.25,5,5,5h19.842
	C388.192,414.416,385.942,412.166,385.942,409.416z" class="AbDeSZel_33"></path>
<g>
</g>
<g>
</g>
<g>
</g>
<g>
</g>
<g>
</g>
<g>
</g>
<g>
</g>
<g>
</g>
<g>
</g>
<g>
</g>
<g>
</g>
<g>
</g>
<g>
</g>
<g>
</g>
<g>
</g>
<style data-made-with="vivus-instant">.AbDeSZel_0{stroke-dasharray:1540 1542;stroke-dashoffset:1541;animation:AbDeSZel_draw 2000ms linear 0ms forwards;}.AbDeSZel_1{stroke-dasharray:240 242;stroke-dashoffset:241;animation:AbDeSZel_draw 2000ms linear 30ms forwards;}.AbDeSZel_2{stroke-dasharray:123 125;stroke-dashoffset:124;animation:AbDeSZel_draw 2000ms linear 60ms forwards;}.AbDeSZel_3{stroke-dasharray:456 458;stroke-dashoffset:457;animation:AbDeSZel_draw 2000ms linear 90ms forwards;}.AbDeSZel_4{stroke-dasharray:123 125;stroke-dashoffset:124;animation:AbDeSZel_draw 2000ms linear 121ms forwards;}.AbDeSZel_5{stroke-dasharray:1492 1494;stroke-dashoffset:1493;animation:AbDeSZel_draw 2000ms linear 151ms forwards;}.AbDeSZel_6{stroke-dasharray:1212 1214;stroke-dashoffset:1213;animation:AbDeSZel_draw 2000ms linear 181ms forwards;}.AbDeSZel_7{stroke-dasharray:449 451;stroke-dashoffset:450;animation:AbDeSZel_draw 2000ms linear 212ms forwards;}.AbDeSZel_8{stroke-dasharray:87 89;stroke-dashoffset:88;animation:AbDeSZel_draw 2000ms linear 242ms forwards;}.AbDeSZel_9{stroke-dasharray:242 244;stroke-dashoffset:243;animation:AbDeSZel_draw 2000ms linear 272ms forwards;}.AbDeSZel_10{stroke-dasharray:178 180;stroke-dashoffset:179;animation:AbDeSZel_draw 2000ms linear 303ms forwards;}.AbDeSZel_11{stroke-dasharray:726 728;stroke-dashoffset:727;animation:AbDeSZel_draw 2000ms linear 333ms forwards;}.AbDeSZel_12{stroke-dasharray:205 207;stroke-dashoffset:206;animation:AbDeSZel_draw 2000ms linear 363ms forwards;}.AbDeSZel_13{stroke-dasharray:859 861;stroke-dashoffset:860;animation:AbDeSZel_draw 2000ms linear 393ms forwards;}.AbDeSZel_14{stroke-dasharray:94 96;stroke-dashoffset:95;animation:AbDeSZel_draw 2000ms linear 424ms forwards;}.AbDeSZel_15{stroke-dasharray:216 218;stroke-dashoffset:217;animation:AbDeSZel_draw 2000ms linear 454ms forwards;}.AbDeSZel_16{stroke-dasharray:216 218;stroke-dashoffset:217;animation:AbDeSZel_draw 2000ms linear 484ms forwards;}.AbDeSZel_17{stroke-dasharray:216 218;stroke-dashoffset:217;animation:AbDeSZel_draw 2000ms linear 515ms forwards;}.AbDeSZel_18{stroke-dasharray:134 136;stroke-dashoffset:135;animation:AbDeSZel_draw 2000ms linear 545ms forwards;}.AbDeSZel_19{stroke-dasharray:134 136;stroke-dashoffset:135;animation:AbDeSZel_draw 2000ms linear 575ms forwards;}.AbDeSZel_20{stroke-dasharray:134 136;stroke-dashoffset:135;animation:AbDeSZel_draw 2000ms linear 606ms forwards;}.AbDeSZel_21{stroke-dasharray:895 897;stroke-dashoffset:896;animation:AbDeSZel_draw 2000ms linear 636ms forwards;}.AbDeSZel_22{stroke-dasharray:739 741;stroke-dashoffset:740;animation:AbDeSZel_draw 2000ms linear 666ms forwards;}.AbDeSZel_23{stroke-dasharray:473 475;stroke-dashoffset:474;animation:AbDeSZel_draw 2000ms linear 696ms forwards;}.AbDeSZel_24{stroke-dasharray:73 75;stroke-dashoffset:74;animation:AbDeSZel_draw 2000ms linear 727ms forwards;}.AbDeSZel_25{stroke-dasharray:360 362;stroke-dashoffset:361;animation:AbDeSZel_draw 2000ms linear 757ms forwards;}.AbDeSZel_26{stroke-dasharray:84 86;stroke-dashoffset:85;animation:AbDeSZel_draw 2000ms linear 787ms forwards;}.AbDeSZel_27{stroke-dasharray:184 186;stroke-dashoffset:185;animation:AbDeSZel_draw 2000ms linear 818ms forwards;}.AbDeSZel_28{stroke-dasharray:184 186;stroke-dashoffset:185;animation:AbDeSZel_draw 2000ms linear 848ms forwards;}.AbDeSZel_29{stroke-dasharray:184 186;stroke-dashoffset:185;animation:AbDeSZel_draw 2000ms linear 878ms forwards;}.AbDeSZel_30{stroke-dasharray:358 360;stroke-dashoffset:359;animation:AbDeSZel_draw 2000ms linear 909ms forwards;}.AbDeSZel_31{stroke-dasharray:154 156;stroke-dashoffset:155;animation:AbDeSZel_draw 2000ms linear 939ms forwards;}.AbDeSZel_32{stroke-dasharray:237 239;stroke-dashoffset:238;animation:AbDeSZel_draw 2000ms linear 969ms forwards;}.AbDeSZel_33{stroke-dasharray:105 107;stroke-dashoffset:106;animation:AbDeSZel_draw 2000ms linear 1000ms forwards;}@keyframes AbDeSZel_draw{100%{stroke-dashoffset:0;}}@keyframes AbDeSZel_fade{0%{stroke-opacity:1;}94.44444444444444%{stroke-opacity:1;}100%{stroke-opacity:0;}}</style></svg>
