<?xml version="1.0" encoding="iso-8859-1"?>
<!-- Generator: Adobe Illustrator 19.0.0, SVG Export Plug-In . SVG Version: 6.00 Build 0)  -->
<svg xmlns="http://www.w3.org/2000/svg" xmlns:xlink="http://www.w3.org/1999/xlink" version="1.1" id="Layer_1" x="0px" y="0px" viewBox="0 0 512.081 512.081" style="enable-background:new 0 0 512.081 512.081;" xml:space="preserve" width="512" height="512">
<g>
	<polygon style="fill:#EDEDF2;" points="223.386,0 15.104,0 15.104,436.169 342.591,436.169 342.591,110.648  "/>
	<polygon style="fill:#D4D4D9;" points="342.591,110.648 223.386,0 178.847,0 178.847,436.169 342.591,436.169  "/>
	<rect x="254.759" y="175.398" style="fill:#B4CD34;" width="227.218" height="91.894"/>
	<rect x="368.368" y="175.398" style="fill:#83B932;" width="113.609" height="91.894"/>
	<path style="fill:#094970;" d="M239.759,160.398v91.894v30v229.789h257.219V282.292v-30v-91.894H239.759z M269.759,252.292v-61.894   h197.219v61.894H269.759z"/>
	<polygon style="fill:#07233E;" points="368.368,160.398 368.368,190.398 466.978,190.398 466.978,252.292 368.368,252.292    368.368,512.081 496.978,512.081 496.978,282.292 496.978,252.292 496.978,160.398  "/>
	<g>
		<rect x="293.704" y="308.644" style="fill:#F8C93B;" width="34.461" height="30"/>
	</g>
	<g>
		<rect x="351.138" y="308.644" style="fill:#F8C93B;" width="34.461" height="30"/>
	</g>
	<rect x="368.368" y="308.644" style="fill:#F3A737;" width="17.23" height="30"/>
	<g>
		<rect x="408.571" y="308.644" style="fill:#F8C93B;" width="34.461" height="30"/>
	</g>
	<g>
		<rect x="408.571" y="308.644" style="fill:#F3A737;" width="34.461" height="30"/>
	</g>
	<g>
		<rect x="293.704" y="366.077" style="fill:#F8C93B;" width="34.461" height="30"/>
	</g>
	<g>
		<rect x="351.138" y="366.077" style="fill:#F8C93B;" width="34.461" height="30"/>
	</g>
	<rect x="368.368" y="366.077" style="fill:#F3A737;" width="17.23" height="30"/>
	<g>
		<rect x="293.704" y="423.511" style="fill:#F8C93B;" width="34.461" height="30"/>
	</g>
	<g>
		<rect x="351.138" y="423.511" style="fill:#F8C93B;" width="34.461" height="30"/>
	</g>
	<rect x="368.368" y="423.511" style="fill:#F3A737;" width="17.23" height="30"/>
	<g>
		<rect x="410.802" y="363.845" style="fill:#ED8635;" width="30" height="91.888"/>
	</g>
	<g>
		<rect x="410.802" y="363.845" style="fill:#E86833;" width="30" height="91.888"/>
	</g>
	<g>
		<rect x="80.098" y="136.948" width="94.283" height="30"/>
	</g>
	<g>
		<rect x="80.098" y="136.948" style="fill:#09719E;" width="94.283" height="30"/>
	</g>
	<g>
		<rect x="80.098" y="196.952" style="fill:#09719E;" width="124.285" height="30"/>
	</g>
	<rect x="178.847" y="196.952" style="fill:#094970;" width="25.536" height="30"/>
	<g>
		<rect x="80.098" y="256.956" style="fill:#09719E;" width="124.285" height="30"/>
	</g>
	<rect x="179.786" y="256.956" style="fill:#094970;" width="25.536" height="30"/>
	<g>
		<rect x="80.098" y="316.96" style="fill:#09719E;" width="124.285" height="30"/>
	</g>
	<rect x="178.847" y="316.96" style="fill:#094970;" width="25.536" height="30"/>
	<polygon style="fill:#D4D4D9;" points="223.386,0 223.386,110.648 342.591,110.648  "/>
	<polygon style="fill:#BBBBC2;" points="223.386,0 223.386,110.648 342.591,110.648  "/>
</g>















</svg>
