<?xml version="1.0" encoding="iso-8859-1"?>
<!-- Generator: Adobe Illustrator 19.0.0, SVG Export Plug-In . SVG Version: 6.00 Build 0)  -->
<svg version="1.1" id="Capa_1" xmlns="http://www.w3.org/2000/svg" xmlns:xlink="http://www.w3.org/1999/xlink" x="0px" y="0px"
	 viewBox="0 0 512 512" style="enable-background:new 0 0 512 512;" xml:space="preserve">
<g>
	<g>
		<path d="M489.492,27.462H22.508C10.097,27.462,0,37.56,0,49.97v45.812c0,4.144,3.358,7.503,7.503,7.503
			c4.143,0,7.503-3.358,7.503-7.503V49.97c0-4.137,3.365-7.503,7.503-7.503h466.985c4.137,0,7.503,3.365,7.503,7.503v201.274
			c0,4.143,3.358,7.503,7.503,7.503s7.503-3.358,7.503-7.503V49.97C512,37.559,501.903,27.462,489.492,27.462z"/>
	</g>
</g>
<g>
	<g>
		<path d="M504.497,273.752c-4.144,0-7.503,3.358-7.503,7.503v40.557H15.005V125.79c0-4.143-3.359-7.503-7.503-7.503
			c-4.144,0-7.503,3.359-7.503,7.503v257.629c0,12.41,10.097,22.508,22.508,22.508H186.83l-4.279,37.279h-35.621
			c-4.144,0-7.503,3.358-7.503,7.503v26.328c0,4.144,3.358,7.503,7.503,7.503h218.142c4.144,0,7.503-3.358,7.503-7.503v-26.328
			c0-4.144-3.358-7.503-7.503-7.503H329.45l-4.279-37.279h164.322c12.41,0,22.508-10.097,22.508-22.508V281.254
			C512,277.11,508.642,273.752,504.497,273.752z M357.569,458.211v11.323H154.431v-11.323H357.569z M197.654,443.205l4.279-37.279
			h108.133l4.279,37.279H197.654z M496.995,383.419c0,4.137-3.365,7.503-7.503,7.503H22.508c-4.137,0-7.503-3.365-7.503-7.503
			v-46.603h481.99V383.419z"/>
	</g>
</g>
<g>
	<g>
		<path d="M392.391,199.081h-5.94c-1.669-29.88-13.468-58.235-33.664-80.519c-10.091-11.136-21.889-20.339-34.841-27.338h42.104
			c3.096,7.391,10.401,12.598,18.902,12.598c11.296,0,20.486-9.19,20.486-20.486s-9.191-20.486-20.486-20.486
			c-8.79,0-16.284,5.577-19.185,13.369h-83.502v-6.416c0-4.144-3.359-7.503-7.503-7.503h-25.981c-4.144,0-7.503,3.358-7.503,7.503
			v6.416h-83.502c-2.901-7.793-10.394-13.369-19.185-13.369c-11.296,0-20.486,9.191-20.486,20.486s9.191,20.486,20.486,20.486
			c8.502,0,15.806-5.207,18.902-12.598h42.103c-12.95,6.999-24.748,16.203-34.84,27.337c-20.196,22.286-31.996,50.64-33.664,80.52
			h-5.485c-4.144,0-7.503,3.358-7.503,7.503v25.979c0,4.144,3.358,7.503,7.503,7.503h25.98c4.144,0,7.503-3.358,7.503-7.503v-25.979
			c0-4.144-3.358-7.503-7.503-7.503h-5.466c1.65-26.145,12.064-50.925,29.754-70.444c17.318-19.108,40.298-31.799,65.402-36.282
			v3.426c0,4.144,3.358,7.503,7.503,7.503h0.111l-28.823,48.413c-2.12,3.561-0.951,8.165,2.608,10.285
			c3.561,2.119,8.165,0.953,10.284-2.608l21.306-35.787v61.594c-7.243,2.967-12.362,10.084-12.362,18.382
			c0,10.954,8.911,19.865,19.865,19.865c10.954,0,19.865-8.911,19.865-19.865c0-8.298-5.12-15.415-12.362-18.382v-61.594
			l55.007,92.393l-25.411,42.76h-74.198l-25.41-42.76l17.861-30.001c2.12-3.561,0.951-8.165-2.608-10.284
			c-3.56-2.117-8.164-0.952-10.284,2.608l-20.145,33.836c-1.406,2.363-1.407,5.307-0.003,7.671l23.152,38.961
			c-3.873,0.295-6.925,3.524-6.925,7.474v32.925c0,4.144,3.358,7.503,7.503,7.503H309.73c4.144,0,7.503-3.358,7.503-7.503v-32.925
			c0-3.949-3.052-7.177-6.925-7.474l23.153-38.961c1.404-2.364,1.404-5.308-0.003-7.671l-64.806-108.854h0.111
			c4.143,0,7.503-3.358,7.503-7.503v-3.426c25.106,4.483,48.084,17.173,65.402,36.283c17.69,19.519,28.105,44.299,29.754,70.443
			h-5.009c-4.144,0-7.503,3.358-7.503,7.503v25.979c0,4.144,3.358,7.503,7.503,7.503h25.979c4.144,0,7.503-3.358,7.503-7.503
			v-25.979C399.894,202.439,396.536,199.081,392.391,199.081z M378.951,77.854c3.022,0,5.481,2.459,5.481,5.481
			s-2.459,5.481-5.481,5.481c-3.022,0-5.481-2.459-5.481-5.481C373.471,80.313,375.93,77.854,378.951,77.854z M132.594,88.816
			c-3.022,0-5.481-2.459-5.481-5.481s2.459-5.481,5.481-5.481s5.481,2.459,5.481,5.481
			C138.074,86.357,135.615,88.816,132.594,88.816z M138.087,225.06h-10.975v-10.974h10.975V225.06z M255.773,208.422
			c-2.68,0-4.86-2.181-4.86-4.86c0-2.68,2.181-4.859,4.86-4.859c2.679,0,4.86,2.18,4.86,4.859S258.452,208.422,255.773,208.422z
			 M261.26,83.698c0,0.005,0,0.01,0,0.015v4.566h-10.975v-4.546c0-0.018,0-0.036,0-0.054v-6.375h10.975V83.698z M209.316,291.665
			v-17.92h5.003c0.03,0,0.059,0.006,0.089,0.006h82.729c0.03,0,0.059-0.006,0.089-0.006h5.002v17.92H209.316z M384.888,225.06
			h-10.974v-10.974h10.974V225.06z"/>
	</g>
</g>
<g>
</g>
<g>
</g>
<g>
</g>
<g>
</g>
<g>
</g>
<g>
</g>
<g>
</g>
<g>
</g>
<g>
</g>
<g>
</g>
<g>
</g>
<g>
</g>
<g>
</g>
<g>
</g>
<g>
</g>
</svg>
