<svg width="224" height="224" viewBox="0 0 224 224" fill="none" xmlns="http://www.w3.org/2000/svg">
<path d="M194.291 84.4762L193.238 84.0731L189.073 73.9268L189.521 72.8737C202.11 43.7546 201.236 42.8359 199.13 40.7316L182.331 23.9775C181.529 23.2369 180.487 22.8151 179.397 22.7901C178.478 22.7901 175.589 22.7901 150.748 34.2803L149.74 34.7288L139.549 30.5618L139.1 29.5087C127.432 0.0100098 126.244 0.0100098 123.332 0.0100098H99.5897C96.7007 0.0100098 95.4006 0.0100128 84.5607 29.5775L84.1576 30.6743L73.9205 34.9069L72.9581 34.5038C56.1588 27.2917 46.3701 23.6183 43.839 23.6183C42.7484 23.6433 41.7047 24.0667 40.9047 24.8058L24.0603 41.605C21.8198 43.8456 21.037 44.6736 34.2974 73.21L34.7677 74.2631L30.6243 84.3658L29.6166 84.7689C0.0039032 96.3264 0.00390625 97.5575 0.00390625 100.626V124.369C0.00390625 127.437 0.0039093 128.692 29.6386 139.532L30.6916 139.935L34.9243 150.083L34.4758 151.136C21.8872 180.255 22.6716 181.083 24.8215 183.278L41.6207 200.032C42.4332 200.782 43.4941 201.206 44.6003 201.22C45.519 201.22 48.4079 201.22 73.249 189.774L74.2567 189.303L84.4939 193.537L84.897 194.59C96.5212 224 97.7528 224 100.62 224H124.362C127.342 224 128.551 224 139.391 194.433L139.794 193.336L150.077 189.103L151.039 189.506C167.838 196.764 177.627 200.392 180.158 200.392C181.268 200.392 182.333 199.967 183.138 199.204L199.982 182.36C202.088 180.119 203.006 179.291 189.702 150.8L189.231 149.704L193.375 139.601L194.382 139.198C223.993 127.506 223.993 126.362 223.993 123.205V99.6183C223.993 96.5497 223.993 95.3185 194.292 84.477L194.291 84.4762ZM111.999 142.758C103.85 142.728 96.0451 139.466 90.2986 133.684C84.5536 127.903 81.3382 120.08 81.357 111.929C81.3773 103.779 84.6318 95.9705 90.4049 90.2192C96.1783 84.4662 103.998 81.2416 112.148 81.2508C120.299 81.2602 128.111 84.5053 133.87 90.2708C139.629 96.0377 142.865 103.855 142.865 112.004C142.842 120.173 139.578 127.999 133.792 133.764C128.004 139.529 120.168 142.764 111.999 142.757V142.758Z" fill="#F41010"/>
</svg>
