<svg width="468" height="468" viewBox="0 0 468 468" fill="none" xmlns="http://www.w3.org/2000/svg">
<path d="M397.33 94H327.33V47.332C327.318 34.961 322.396 23.098 313.65 14.348C304.9 5.60187 293.037 0.679969 280.666 0.667969H187.33C174.959 0.679688 163.096 5.60157 154.346 14.348C145.6 23.098 140.678 34.961 140.666 47.332V94H70.666C52.107 94.0195 34.314 101.402 21.189 114.523C8.06801 127.648 0.685016 145.441 0.666016 164V205.133L163.996 240.133V234C163.996 227.813 166.453 221.875 170.832 217.5C175.207 213.125 181.141 210.668 187.328 210.668H280.664C286.851 210.668 292.785 213.125 297.16 217.5C301.539 221.875 303.996 227.812 303.996 234V240.133L467.326 205.133V164C467.306 145.441 459.923 127.648 446.803 114.523C433.678 101.402 415.885 94.019 397.326 94H397.33ZM280.67 94H187.334V47.332L280.666 47.2968L280.67 94Z" fill="#F41010"/>
<path d="M304 304C304 310.187 301.543 316.125 297.164 320.5C292.789 324.875 286.855 327.332 280.668 327.332H187.332C181.145 327.332 175.211 324.875 170.836 320.5C166.457 316.125 164 310.188 164 304V287.871L0.670166 252.871V397.331C0.689697 415.89 8.07248 433.683 21.1932 446.808C34.3182 459.929 52.1112 467.312 70.6702 467.331H397.33C415.889 467.311 433.682 459.929 446.807 446.808C459.928 433.683 467.311 415.89 467.33 397.331V252.871L304 287.871L304 304Z" fill="#F41010"/>
</svg>
