<svg width="526" height="526" viewBox="0 0 526 526" fill="none" xmlns="http://www.w3.org/2000/svg">
<path d="M263 385.5C330.656 385.5 385.5 330.656 385.5 263C385.5 195.344 330.656 140.5 263 140.5C195.344 140.5 140.5 195.344 140.5 263C140.5 330.656 195.344 385.5 263 385.5ZM263 271.75C238.875 271.75 219.25 252.125 219.25 228C219.25 206.879 234.309 189.203 254.25 185.133V166.75H271.75V185.133C291.691 189.203 306.75 206.867 306.75 228H289.25C289.25 213.527 277.473 201.75 263 201.75C248.527 201.75 236.75 213.527 236.75 228C236.75 242.473 248.527 254.25 263 254.25C287.125 254.25 306.75 273.875 306.75 298C306.75 319.121 291.691 336.797 271.75 340.867V359.25H254.25V340.867C234.309 336.797 219.25 319.133 219.25 298H236.75C236.75 312.473 248.527 324.25 263 324.25C277.473 324.25 289.25 312.473 289.25 298C289.25 283.527 277.473 271.75 263 271.75Z" fill="#FF0000"/>
<path d="M236.75 0.5H289.25V53H236.75V0.5Z" fill="#FF0000"/>
<path d="M473 0.5H525.5V53H473V0.5Z" fill="#FF0000"/>
<path d="M0.5 0.5H53V53H0.5V0.5Z" fill="#FF0000"/>
<path d="M236.75 473H289.25V525.5H236.75V473Z" fill="#FF0000"/>
<path d="M473 473H525.5V525.5H473V473Z" fill="#FF0000"/>
<path d="M0.5 473H53V525.5H0.5V473Z" fill="#FF0000"/>
<path d="M473 236.75H525.5V289.25H473V236.75Z" fill="#FF0000"/>
<path d="M0.5 236.75H53V289.25H0.5V236.75Z" fill="#FF0000"/>
<path d="M254.25 79.25H271.75V96.75H254.25V79.25Z" fill="#FF0000"/>
<path d="M254.25 105.5H271.75V123H254.25V105.5Z" fill="#FF0000"/>
<path d="M254.25 403H271.75V420.5H254.25V403Z" fill="#FF0000"/>
<path d="M254.25 429.25H271.75V446.75H254.25V429.25Z" fill="#FF0000"/>
<path d="M429.25 254.25H446.75V271.75H429.25V254.25Z" fill="#FF0000"/>
<path d="M403 254.25H420.5V271.75H403V254.25Z" fill="#FF0000"/>
<path d="M105.5 254.25H123V271.75H105.5V254.25Z" fill="#FF0000"/>
<path d="M79.25 254.25H96.75V271.75H79.25V254.25Z" fill="#FF0000"/>
<path d="M365.44 172.94L438.002 100.374V114.253H455.502V79.253C455.502 74.4249 451.592 70.503 446.752 70.503H411.752V88.003H425.631L353.069 160.565L365.44 172.94Z" fill="#FF0000"/>
<path d="M169.31 361.81L96.748 434.376V420.497H79.248V455.497C79.248 460.325 83.1582 464.247 87.998 464.247H122.998V446.747H109.119L181.681 374.185L169.31 361.81Z" fill="#FF0000"/>
<path d="M420.5 455.5H455.5C460.34 455.5 464.25 451.578 464.25 446.75V411.75H446.75V425.629L374.188 353.067L361.817 365.438L434.379 438H420.5V455.5Z" fill="#FF0000"/>
<path d="M88 100.37L160.562 172.932L172.933 160.561L100.371 87.999H114.25V70.499H79.25C74.4102 70.499 70.5 74.4209 70.5 79.249V114.249H88V100.37Z" fill="#FF0000"/>
</svg>
