<svg width="504" height="504" viewBox="0 0 504 504" fill="none" xmlns="http://www.w3.org/2000/svg">
<path d="M252 0C112.82 0 0 112.82 0 252C0 391.18 112.82 504 252 504C391.18 504 504 391.18 504 252C504 112.82 391.18 0 252 0ZM364 257.6H252C248.91 257.6 246.398 255.092 246.398 251.998V83.9984C246.398 80.9086 248.906 78.3968 252 78.3968C255.09 78.3968 257.602 80.9046 257.602 83.9984V246.398H364.002C367.091 246.398 369.603 248.906 369.603 252C369.603 255.09 367.091 257.602 364.002 257.602L364 257.6ZM414.348 97.57C412.157 99.7614 408.617 99.7614 406.43 97.57C321.278 12.418 182.72 12.418 97.57 97.57C12.418 182.722 12.418 321.28 97.57 406.43C99.7614 408.621 99.7614 412.16 97.57 414.348C96.4762 415.442 95.0427 415.989 93.6091 415.989C92.1755 415.989 90.7419 415.442 89.6482 414.348C0.125191 324.825 0.125191 179.168 89.6482 89.648C179.164 0.125 324.828 0.125 414.348 89.648C416.544 91.8316 416.544 95.3746 414.352 97.566L414.348 97.57Z" fill="#F41010"/>
</svg>
