<svg width="514" height="550" viewBox="0 0 514 550" fill="none" xmlns="http://www.w3.org/2000/svg">
<path d="M157.43 182.6L180.614 186.69V186.686C183.333 196.78 187.364 206.475 192.598 215.526L179.102 234.792C176.684 238.222 175.555 242.394 175.915 246.573C176.274 250.753 178.094 254.671 181.059 257.639L194.946 271.526H194.95C197.915 274.491 201.837 276.315 206.016 276.674C210.196 277.034 214.368 275.905 217.797 273.487L237.063 259.991H237.059C246.11 265.225 255.805 269.252 265.899 271.975L269.989 295.159C270.712 299.284 272.868 303.018 276.071 305.714C279.278 308.405 283.329 309.886 287.516 309.886H307.395C311.582 309.886 315.637 308.405 318.84 305.714C322.047 303.019 324.199 299.284 324.926 295.159L329.016 271.975H329.012C339.086 269.248 348.762 265.221 357.797 259.991L377.063 273.487H377.059C380.489 275.905 384.66 277.034 388.84 276.674C393.023 276.315 396.941 274.491 399.906 271.526L413.797 257.639C416.762 254.67 418.586 250.752 418.941 246.573C419.301 242.393 418.172 238.221 415.758 234.792L402.035 215.526C407.191 206.463 411.144 196.768 413.797 186.686L436.981 182.596V182.6C441.106 181.873 444.84 179.721 447.536 176.514C450.227 173.311 451.708 169.256 451.708 165.069V145.413C451.708 141.23 450.227 137.175 447.536 133.972C444.84 130.765 441.106 128.613 436.981 127.886L413.797 123.8C411.074 113.706 407.047 104.011 401.813 94.9603L415.309 75.6943C417.781 72.3154 418.988 68.1748 418.711 63.9953C418.434 59.8156 416.695 55.8703 413.797 52.8473L399.684 38.9603C396.723 35.9837 392.809 34.1517 388.629 33.7845C384.449 33.4134 380.273 34.5345 376.836 36.9447L357.797 50.4407C348.746 45.2063 339.051 41.1751 328.957 38.4567L324.867 15.2727C324.133 11.1672 321.984 7.45241 318.789 4.76871C315.598 2.08901 311.566 0.612508 307.394 0.600708H287.46C283.273 0.600708 279.222 2.08121 276.015 4.77261C272.808 7.46791 270.656 11.2023 269.933 15.3276L265.843 38.5116C255.753 41.2147 246.058 45.2264 237.003 50.4416L217.796 36.9456C214.359 34.5354 210.183 33.4144 206.003 33.7854C201.824 34.1526 197.909 35.9846 194.948 38.9612L181.061 52.8482H181.057C178.093 55.817 176.272 59.7349 175.913 63.9142C175.553 68.0939 176.682 72.2658 179.1 75.6952L192.596 94.9612C187.342 104.008 183.296 113.703 180.553 123.801L157.369 127.891V127.887C153.248 128.614 149.51 130.766 146.814 133.973C144.123 137.176 142.646 141.231 142.642 145.414V165.07C142.646 169.265 144.135 173.324 146.838 176.531C149.541 179.738 153.291 181.887 157.428 182.601L157.43 182.6ZM297.43 89.08V89.0761C314.957 89.123 331.754 96.1269 344.125 108.549C356.492 120.971 363.426 137.795 363.395 155.326C363.368 172.857 356.38 189.658 343.965 202.037C331.555 214.42 314.735 221.365 297.203 221.349C279.672 221.333 262.867 214.361 250.476 201.958C238.085 189.556 231.124 172.743 231.124 155.212C231.151 137.673 238.14 120.86 250.546 108.462C262.956 96.0641 279.773 89.0911 297.316 89.0751L297.43 89.08ZM111.96 549.4L0.910156 441.21L80.4301 362.194H80.4341C96.5821 346.151 116.926 334.983 139.129 329.96C161.332 324.94 184.5 326.273 205.984 333.804L223.398 339.905H330.918C340.055 339.901 348.801 343.616 355.141 350.198C361.481 356.78 364.868 365.663 364.516 374.796C364.012 383.761 360.055 392.187 353.481 398.304C346.903 404.422 338.215 407.758 329.235 407.613H264.95C257.681 407.613 251.79 413.504 251.79 420.773C251.79 428.039 257.681 433.933 264.95 433.933H329.462C345.204 433.941 360.357 427.925 371.802 417.113C383.247 406.304 390.118 391.523 391.005 375.804V374.964L450.7 307.765C456.774 300.75 465.317 296.339 474.555 295.453C483.793 294.566 493.02 297.273 500.317 303.004C507.684 309.055 512.278 317.836 513.047 327.336C513.821 336.84 510.699 346.246 504.403 353.402L385.233 489.652C369.362 507.863 346.389 518.316 322.233 518.324H143.033L111.96 549.4ZM262.1 155.22C262.1 145.88 265.811 136.919 272.416 130.314C279.022 123.709 287.978 119.998 297.322 119.998C306.662 119.998 315.623 123.709 322.228 130.314C328.834 136.92 332.544 145.88 332.544 155.22C332.544 164.564 328.833 173.521 322.228 180.13C315.623 186.736 306.662 190.446 297.322 190.446C287.978 190.446 279.021 186.735 272.416 180.13C265.811 173.521 262.1 164.564 262.1 155.22Z" fill="#F41010"/>
</svg>
