<svg width="561" height="464" viewBox="0 0 561 464" fill="none" xmlns="http://www.w3.org/2000/svg">
<path d="M503.88 226.4C503.88 226.959 512.278 219.119 512.278 219.681H560.997L476.442 317.681L390.762 219.681H439.481C439.481 219.123 450.122 226.963 450.122 226.4C450.122 132.88 377.884 57.2802 288.842 57.2802C248.522 57.2802 211.561 72.9602 183.562 98.7212L147.722 56.1622C185.8 21.4432 235.081 0.721191 288.842 0.721191C407.562 0.721191 503.882 102.081 503.882 226.401L503.88 226.4Z" fill="white"/>
<path d="M58.12 237.6C58.12 237.041 49.7216 244.881 49.7216 244.319H0.998596L85.5576 146.319L171.238 244.319H122.519C122.519 244.877 111.878 237.038 111.878 237.6C111.878 331.12 184.116 406.72 273.158 406.72C313.478 406.72 350.439 391.04 378.438 365.279L414.278 407.838C376.2 442.557 326.919 463.279 273.158 463.279C154.438 463.279 58.1176 361.919 58.1176 237.599L58.12 237.6Z" fill="white"/>
</svg>
