<svg width="504" height="505" viewBox="0 0 504 505" fill="none" xmlns="http://www.w3.org/2000/svg">
<path d="M458.11 46.8873C412.805 1.52028 378.77 8.32528 378.77 8.32528L38.66 348.395L6.94104 498.015L156.571 466.292L496.691 126.242C496.683 126.238 503.476 92.2343 458.101 46.8873H458.11ZM147.67 448.287L96.643 459.267C91.725 450.045 85.795 440.872 74.959 429.99C64.119 419.15 54.889 413.201 45.658 408.295L56.638 357.256L71.4 342.557C71.4 342.557 99.193 343.1 130.474 374.444C161.806 405.811 162.404 433.518 162.404 433.518L147.67 448.287Z" fill="white"/>
<path d="M106.75 237.55L128.188 216.12L30.887 118.811L117.817 31.8812L137.903 51.9672L110.821 79.0492C104.891 84.9554 104.903 94.5692 110.821 100.475C116.727 106.405 126.317 106.405 132.247 100.475L159.329 73.3932L196.372 110.416L169.278 137.521C163.36 143.427 163.36 153.041 169.29 158.947C172.536 162.201 176.88 163.49 181.138 163.166L236.54 107.756L137.321 8.52901C126.567 -2.22499 108.188 -1.37329 96.3757 10.4509L9.45773 97.3849C-2.35127 109.201 -3.21027 127.557 7.54753 138.33L106.75 237.55Z" fill="white"/>
<path d="M496.45 367.66L397.29 268.504L340.544 325.246C340.903 328.543 342.142 331.793 344.677 334.328C350.583 340.258 360.165 340.258 366.091 334.328L393.185 307.242L430.216 344.285L403.122 371.371C397.204 377.278 397.204 386.891 403.122 392.793C409.051 398.731 418.634 398.731 424.56 392.793L451.642 365.711L473.103 387.176H473.091L386.177 474.114L288.935 376.868L267.497 398.294L366.669 497.458C377.431 508.216 395.794 507.361 407.614 495.56L494.532 408.63C506.372 396.794 507.212 378.431 496.45 367.661L496.45 367.66Z" fill="white"/>
</svg>
