<svg width="474" height="561" viewBox="0 0 474 561" fill="none" xmlns="http://www.w3.org/2000/svg">
<path d="M379.712 304.157L239.172 547.547C232.676 559.141 218.168 563.485 207.297 556.961L12.4668 443.971C0.8688 437.46 -3.4712 422.975 3.0254 411.377L143.565 167.987L258.025 96.2683L313.072 127.42C316.69 117.279 315.955 116.549 318.139 106.408C323.205 83.9593 328.28 44.1193 373.182 10.0723C388.397 -2.97074 411.565 -2.97074 432.569 7.90036C444.163 12.9668 454.307 21.6544 461.561 31.0804C468.791 41.9324 472.409 53.5294 473.131 64.4004C472.404 78.1544 465.9 96.9944 435.483 111.474C411.561 122.345 391.272 125.244 372.448 127.419C355.776 129.591 342.757 131.044 331.886 138.29L385.499 169.438L379.712 304.157ZM323.208 232.45C334.806 212.895 331.165 188.989 317.411 173.052L292.782 157.833C271.044 150.591 246.427 160.005 234.098 181.017C220.344 205.642 228.297 236.787 252.95 251.275C277.579 265.045 309.454 257.072 323.208 232.451L323.208 232.45ZM329.739 107.86C329.739 111.485 329.012 113.657 328.278 116.555C327.552 120.169 328.278 122.341 326.821 126.696C339.876 118.001 353.63 117.271 371.028 115.825C388.399 113.654 408.676 110.759 430.411 100.614C450.696 91.9192 460.837 78.8765 461.559 64.3915C461.559 47.7275 449.239 30.3445 431.141 20.2005C430.407 19.4895 428.95 18.763 427.524 18.0286C410.129 9.34106 392.731 9.34106 379.704 19.4856C339.153 50.6266 333.349 86.1376 329.739 107.861L329.739 107.86Z" fill="white"/>
</svg>
