<svg width="388" height="422" viewBox="0 0 388 422" fill="none" xmlns="http://www.w3.org/2000/svg">
<path d="M26.41 420.75C14.715 418.582 5.332 410.086 1.765 398.449C0.581399 394.586 0.183001 388.894 0.835311 385.148C1.96031 378.699 11.9253 345.824 21.5263 316.898C23.0575 312.285 25.038 308.91 28.249 305.441C33.2334 300.058 35.8701 298.691 61.601 288.136C70.0971 284.652 80.48 280.371 84.671 278.621C96.901 273.523 111.679 267.894 127.308 262.379L132.499 260.547L133.632 264.461C138.605 281.672 168.183 368.531 169.593 370.071C169.812 370.309 169.964 369.774 169.96 368.782C169.956 367.848 170.746 350.059 171.714 329.251L173.476 291.415L166.167 276.903C163.222 272.008 157.132 263.758 158.332 262.766C159.07 262.156 160.406 263.336 162.351 264.336C170.628 268.48 180.042 272.297 191.644 272.746C204.374 273.238 214.644 269.258 225.406 264.383C227.605 263.359 229.976 261.57 230.871 262.582C232.078 263.941 222.219 276.254 222.07 276.547L214.582 291.367L216.402 330.828C217.406 352.531 218.355 370.148 218.519 369.976C219.582 368.851 250.148 278.956 254.617 263.816L255.586 260.539L269.965 265.793C286.887 271.976 288.645 272.656 303.969 278.922C352.598 298.797 353.141 299.051 358.481 304.145C361.204 306.742 364.321 311.121 365.411 313.879C365.782 314.824 367.442 319.801 369.098 324.941C380.032 358.875 386.309 379.886 387.164 385.394C388.766 395.722 384.125 407.433 375.742 414.214C372.832 416.569 367.543 419.3 363.734 420.417C361.297 421.132 352.234 421.175 195.284 421.241C60.8542 421.3 28.8341 421.206 26.4041 420.753L26.41 420.75ZM188.2 245.21C168.348 240.89 149.196 227.815 135.243 209.065C127.79 199.049 120.282 184.253 116.29 171.713C115.345 168.748 115.255 168.627 114.204 168.916C112.196 169.471 108.829 169.151 107.04 168.24C100.243 164.772 95.556 153.736 93.337 135.982C91.9815 125.15 92.9737 119.685 96.919 116.209C99.4229 114.002 102.118 113.225 107.22 113.225H111.267L110.966 106.252C109.904 81.6153 110.005 75.4083 111.615 67.1113C118.38 32.2133 147.197 5.57634 182.674 1.42734C208.154 -1.55316 230.889 5.09144 249.725 21.0253C262.057 31.4593 271.998 48.1773 275.705 64.7283C277.63 73.3299 277.919 78.6033 277.337 94.5403C277.052 102.337 276.822 109.731 276.826 110.97L276.833 113.224H280.861C287.505 113.224 290.931 114.853 293.248 119.107C295.517 123.279 295.654 129.103 293.759 141.119C290.822 159.744 283.638 170.517 275.021 169.224C274.014 169.072 273.014 168.955 272.799 168.958C272.584 168.962 271.701 171.056 270.83 173.603C262.017 199.439 246.904 220.193 227.478 233.134C222.482 236.462 214.017 240.708 208.595 242.607C199.767 245.696 193.892 246.443 188.197 245.2L188.2 245.21Z" fill="white"/>
</svg>
