<svg width="393" height="346" viewBox="0 0 393 346" fill="none" xmlns="http://www.w3.org/2000/svg">
<path d="M309.31 177.6C291.501 177.6 277.064 192.038 277.064 209.846V313.036C277.064 330.845 291.502 345.282 309.31 345.282C327.118 345.282 341.556 330.844 341.556 313.036V209.846C341.556 192.041 327.118 177.6 309.31 177.6ZM380.365 230.905V225.647C380.365 219.147 377.908 213.221 373.873 208.741V177.604C373.873 154.565 369.509 132.159 360.904 110.999C354.384 94.972 345.545 79.991 334.619 66.483C323.787 53.081 311.088 41.35 296.885 31.616C267.412 11.409 232.873 0.729004 196.998 0.729004C173.127 0.729004 149.963 5.4048 128.15 14.635C106.709 23.7014 87.5088 36.737 71.0878 53.389C54.6498 70.045 41.8728 89.424 33.0958 111.006C24.4903 132.17 20.1268 154.58 20.1268 177.619V208.756C16.0956 213.236 13.6346 219.162 13.6346 225.662V230.92C6.6541 230.904 0.997604 236.56 0.997604 243.545V279.334C0.997604 286.31 6.6538 291.967 13.6306 291.967V297.225C13.6306 311.186 24.9466 322.498 38.9036 322.498V200.378C36.6575 200.378 34.4856 200.671 32.4114 201.217V177.608C32.4114 156.17 36.47 135.315 44.4734 115.631C44.8445 114.717 45.2312 113.807 45.6218 112.897C56.6998 111.28 66.9458 105.061 73.4888 95.202C100.575 54.343 146.309 32.874 196.999 32.874C247.689 32.874 293.421 54.343 320.499 95.214C327.034 105.077 337.288 111.296 348.366 112.909C348.753 113.815 349.131 114.722 349.506 115.643C357.514 135.327 361.568 156.174 361.568 177.612V201.221C359.502 200.675 357.322 200.382 355.076 200.382V322.512C369.037 322.512 380.349 311.196 380.349 297.239V291.981C387.326 291.981 392.982 286.325 392.982 279.348V243.559C392.994 236.567 387.338 230.911 380.361 230.911L380.365 230.905ZM84.685 177.6C66.876 177.6 52.439 192.038 52.439 209.846V313.036C52.439 330.845 66.877 345.282 84.685 345.282C102.493 345.282 116.931 330.844 116.931 313.036L116.927 209.846C116.927 192.041 102.486 177.6 84.6851 177.6H84.685Z" fill="white"/>
</svg>
