<svg width="346" height="502" viewBox="0 0 346 502" fill="none" xmlns="http://www.w3.org/2000/svg">
<path d="M214.38 390.78C213.204 390.557 212.083 391.339 211.806 392.515C205.142 420.964 190.583 445.605 173.669 457.308C156.759 445.605 142.196 421.018 135.532 392.573C135.251 391.398 134.133 390.671 132.958 390.839C131.782 391.062 130.942 392.128 131.11 393.304C136.04 438.495 150.934 477.753 172.048 501.104C172.497 501.553 173.11 501.83 173.728 501.83C174.345 501.83 174.958 501.549 175.407 501.104C196.52 477.752 211.415 438.495 216.345 393.244C216.396 392.06 215.556 390.998 214.38 390.775L214.38 390.78Z" fill="white"/>
<path d="M201.39 364.57C196.519 385.347 185.933 403.379 173.671 412.058C161.351 403.378 150.823 385.347 145.952 364.57C145.671 363.394 144.554 362.668 143.378 362.836C142.202 363.058 141.362 364.125 141.53 365.3C145.171 398.956 156.315 428.245 172.05 445.605C172.499 446.055 173.113 446.332 173.73 446.332C174.347 446.332 174.96 446.051 175.409 445.605C191.143 428.191 202.288 398.902 205.929 365.246C206.043 364.071 205.258 362.95 204.082 362.782C202.793 362.668 201.672 363.395 201.39 364.571L201.39 364.57Z" fill="white"/>
<path d="M253.53 185.37C253.53 107.417 222.842 39.1002 176.866 1.24022C175.018 -0.27148 172.272 -0.27148 170.425 1.24022C124.448 39.0952 93.7606 107.36 93.7606 185.37C93.7606 189.46 94.0965 194.218 94.7684 199.483C97.4559 220.932 105.182 250.553 113.362 277.659C117.003 289.757 120.698 301.401 124.116 311.597C124.902 313.894 127.027 315.406 129.437 315.406H217.804C220.21 315.406 222.339 313.894 223.124 311.597C226.538 301.406 230.237 289.812 233.878 277.659C242.108 250.108 249.948 220.034 252.581 198.53C253.194 193.659 253.53 189.233 253.53 185.37H253.53ZM173.675 242.491C152.284 242.491 134.921 217.682 134.921 187.05C134.921 156.418 152.28 131.609 173.675 131.609C195.066 131.609 212.429 156.418 212.429 187.05C212.429 217.682 195.066 242.491 173.675 242.491Z" fill="white"/>
<path d="M207.16 332.65C206.769 332.033 206.039 331.643 205.258 331.643H141.977C141.25 331.643 140.52 332.033 140.074 332.65C139.625 333.268 139.57 334.049 139.852 334.779C143.156 342.732 147.133 350.177 151.668 356.9C152.117 357.517 152.789 357.908 153.515 357.908H193.554C194.281 357.908 195.011 357.517 195.402 356.9C199.996 350.181 203.969 342.732 207.218 334.779C207.663 334.107 207.609 333.322 207.16 332.65H207.16Z" fill="white"/>
<path d="M81.44 198.75C81.3267 197.797 80.6548 197.071 79.7056 196.848C78.8111 196.625 77.8579 197.016 77.2994 197.801L1.02239 311.031C0.463798 311.871 0.518479 312.934 1.13567 313.719C1.58489 314.277 2.25677 314.559 2.92867 314.559C3.20992 314.559 3.43257 314.504 3.71382 314.445L98.5768 279.332C99.6979 278.942 100.311 277.707 99.9752 276.532C93.1432 253.802 84.3502 221.88 81.4402 198.755L81.44 198.75Z" fill="white"/>
<path d="M344.98 314.17L268.707 200.88C268.203 200.095 267.25 199.705 266.301 199.927C265.406 200.15 264.676 200.935 264.566 201.83C261.656 224.959 252.918 256.935 246.086 279.67C245.75 280.791 246.368 282.021 247.485 282.47L342.348 317.583C342.629 317.697 342.852 317.697 343.133 317.697C343.805 317.697 344.477 317.415 344.926 316.857C345.485 316.017 345.539 314.954 344.981 314.169L344.98 314.17Z" fill="white"/>
</svg>
